<?xml version="1.0" encoding="UTF-8" standalone="no"?>
<svg
   inkscape:export-ydpi="768"
   inkscape:export-xdpi="768"
   inkscape:export-filename="C:\Users\RainBoyz\Desktop\EXP\FLAT ICON\SVG\Iceberg.png"
   width="48pt"
   height="48pt"
   viewBox="0 0 16.933334 16.933333"
   version="1.1"
   id="svg979"
   inkscape:version="1.1 (c68e22c387, 2021-05-23)"
   sodipodi:docname="11 - Iceberg.svg"
   xmlns:inkscape="http://www.inkscape.org/namespaces/inkscape"
   xmlns:sodipodi="http://sodipodi.sourceforge.net/DTD/sodipodi-0.dtd"
   xmlns="http://www.w3.org/2000/svg"
   xmlns:svg="http://www.w3.org/2000/svg"
   xmlns:rdf="http://www.w3.org/1999/02/22-rdf-syntax-ns#"
   xmlns:cc="http://creativecommons.org/ns#"
   xmlns:dc="http://purl.org/dc/elements/1.1/">
  <defs
     id="defs973" />
  <sodipodi:namedview
     id="base"
     pagecolor="#ffffff"
     bordercolor="#666666"
     borderopacity="1.0"
     inkscape:pageopacity="0.0"
     inkscape:pageshadow="2"
     inkscape:zoom="7.6875"
     inkscape:cx="31.934959"
     inkscape:cy="32"
     inkscape:document-units="pt"
     inkscape:current-layer="layer1"
     showgrid="false"
     units="pt"
     inkscape:window-width="1366"
     inkscape:window-height="716"
     inkscape:window-x="-8"
     inkscape:window-y="-8"
     inkscape:window-maximized="1"
     inkscape:document-rotation="0"
     inkscape:snap-bbox="true"
     inkscape:bbox-nodes="true"
     inkscape:snap-nodes="false"
     inkscape:pagecheckerboard="0"
     showguides="false">
    <inkscape:grid
       type="xygrid"
       id="grid1526" />
    <sodipodi:guide
       position="0.97013909,15.963209"
       orientation="56.666615,0"
       id="guide1528"
       inkscape:locked="false" />
    <sodipodi:guide
       position="0.97013909,0.97016731"
       orientation="0,56.666667"
       id="guide1530"
       inkscape:locked="false" />
    <sodipodi:guide
       position="15.963195,0.97016731"
       orientation="-56.666615,0"
       id="guide1532"
       inkscape:locked="false" />
    <sodipodi:guide
       position="15.963195,15.963209"
       orientation="0,-56.666667"
       id="guide1534"
       inkscape:locked="false" />
  </sodipodi:namedview>
  <metadata
     id="metadata976">
    <rdf:RDF>
      <cc:Work
         rdf:about="">
        <dc:format>image/svg+xml</dc:format>
        <dc:type
           rdf:resource="http://purl.org/dc/dcmitype/StillImage" />
      </cc:Work>
    </rdf:RDF>
  </metadata>
  <g
     inkscape:label="Layer 1"
     inkscape:groupmode="layer"
     id="layer1"
     transform="translate(0,-280.06668)">
    <g
       id="g1503"
       style="display:inline"
       transform="matrix(1.2201291,0,0,1.2201291,54.437173,-92.958082)">
      <path
         style="color:#000000;font-style:normal;font-variant:normal;font-weight:normal;font-stretch:normal;font-size:medium;line-height:normal;font-family:sans-serif;font-variant-ligatures:normal;font-variant-position:normal;font-variant-caps:normal;font-variant-numeric:normal;font-variant-alternates:normal;font-variant-east-asian:normal;font-feature-settings:normal;font-variation-settings:normal;text-indent:0;text-align:start;text-decoration:none;text-decoration-line:none;text-decoration-style:solid;text-decoration-color:#000000;letter-spacing:normal;word-spacing:normal;text-transform:none;writing-mode:lr-tb;direction:ltr;text-orientation:mixed;dominant-baseline:auto;baseline-shift:baseline;text-anchor:start;white-space:normal;shape-padding:0;shape-margin:0;inline-size:0;clip-rule:nonzero;display:inline;overflow:visible;visibility:visible;isolation:auto;mix-blend-mode:normal;color-interpolation:sRGB;color-interpolation-filters:linearRGB;solid-color:#000000;solid-opacity:1;vector-effect:none;fill:#1d818a;fill-opacity:1;fill-rule:nonzero;stroke:none;stroke-width:0.529167;stroke-linecap:round;stroke-linejoin:round;stroke-miterlimit:4;stroke-dasharray:none;stroke-dashoffset:0;stroke-opacity:1;color-rendering:auto;image-rendering:auto;shape-rendering:auto;text-rendering:auto;enable-background:accumulate;stop-color:#000000"
         d="m -43.199941,312.13938 c -0.04357,0.0795 -0.04719,0.18089 0.0085,0.26882 l 1.851562,2.91016 c 0.04326,0.068 0.115165,0.11258 0.195313,0.12109 l 2.222656,0.24805 1,2.49805 c 0.08502,0.21195 0.380571,0.22389 0.482422,0.0195 l 1.894531,-3.79297 0.814453,1.42578 c 0.09653,0.16903 0.336388,0.17949 0.447266,0.0195 l 2.380859,-3.43945 c 0.06142,-0.088 0.06041,-0.19239 0.0172,-0.27457 z"
         id="path1434"
         sodipodi:nodetypes="ccccccccccccc" />
      <path
         sodipodi:nodetypes="ccccccccccccccccc"
         style="color:#000000;font-style:normal;font-variant:normal;font-weight:normal;font-stretch:normal;font-size:medium;line-height:normal;font-family:sans-serif;font-variant-ligatures:normal;font-variant-position:normal;font-variant-caps:normal;font-variant-numeric:normal;font-variant-alternates:normal;font-variant-east-asian:normal;font-feature-settings:normal;font-variation-settings:normal;text-indent:0;text-align:start;text-decoration:none;text-decoration-line:none;text-decoration-style:solid;text-decoration-color:#000000;letter-spacing:normal;word-spacing:normal;text-transform:none;writing-mode:lr-tb;direction:ltr;text-orientation:mixed;dominant-baseline:auto;baseline-shift:baseline;text-anchor:start;white-space:normal;shape-padding:0;shape-margin:0;inline-size:0;clip-rule:nonzero;display:inline;overflow:visible;visibility:visible;isolation:auto;mix-blend-mode:normal;color-interpolation:sRGB;color-interpolation-filters:linearRGB;solid-color:#000000;solid-opacity:1;vector-effect:none;fill:#d0e2ee;fill-opacity:1;fill-rule:nonzero;stroke:none;stroke-width:0.529167;stroke-linecap:round;stroke-linejoin:round;stroke-miterlimit:4;stroke-dasharray:none;stroke-dashoffset:0;stroke-opacity:1;color-rendering:auto;image-rendering:auto;shape-rendering:auto;text-rendering:auto;enable-background:accumulate;stop-color:#000000"
         d="m -39.503906,307.12891 -1.402344,3.03711 -0.527344,-0.70508 c -0.130756,-0.17325 -0.40299,-0.12405 -0.464844,0.084 l -0.751953,2.50586 c -0.05032,0.16969 0.07691,0.33998 0.253907,0.33984 l 9.458984,0.004 c 0.164029,4.9e-4 0.288983,-0.14684 0.261719,-0.30859 l -0.50586,-3.03711 c -0.03418,-0.21385 -0.296754,-0.29833 -0.449218,-0.14453 l -1.400391,1.40039 -1.400391,-1.40039 c -0.06531,-0.0655 -0.160107,-0.0922 -0.25,-0.0703 l -0.888671,0.22266 -1.482422,-1.97656 c -0.05312,-0.0709 -0.138152,-0.11044 -0.231174,-0.10504 -0.09302,0.005 -0.179403,0.0648 -0.219998,0.15374 z"
         id="path1448" />
      <path
         id="path1475"
         d="m -39.021484,308.82812 a 0.2645835,0.2645835 0 0 0 -0.220704,0.15821 l -0.09961,0.23242 -0.09961,0.23242 -0.09961,0.23047 a 0.2645835,0.2645835 0 0 0 0.138672,0.34766 0.2645835,0.2645835 0 0 0 0.347656,-0.13868 l 0.09961,-0.23242 0.09961,-0.23047 0.09961,-0.23242 a 0.2645835,0.2645835 0 0 0 -0.138672,-0.34765 0.2645835,0.2645835 0 0 0 -0.126953,-0.0195 z m -0.695313,1.6211 a 0.2645835,0.2645835 0 0 0 -0.220703,0.1582 l -0.04883,0.11524 a 0.2645835,0.2645835 0 0 0 0.138672,0.34765 0.2645835,0.2645835 0 0 0 0.347656,-0.13867 l 0.04883,-0.11523 a 0.2645835,0.2645835 0 0 0 -0.138672,-0.34766 0.2645835,0.2645835 0 0 0 -0.126953,-0.0195 z"
         style="color:#000000;font-style:normal;font-variant:normal;font-weight:normal;font-stretch:normal;font-size:medium;line-height:normal;font-family:sans-serif;font-variant-ligatures:normal;font-variant-position:normal;font-variant-caps:normal;font-variant-numeric:normal;font-variant-alternates:normal;font-variant-east-asian:normal;font-feature-settings:normal;font-variation-settings:normal;text-indent:0;text-align:start;text-decoration:none;text-decoration-line:none;text-decoration-style:solid;text-decoration-color:#000000;letter-spacing:normal;word-spacing:normal;text-transform:none;writing-mode:lr-tb;direction:ltr;text-orientation:mixed;dominant-baseline:auto;baseline-shift:baseline;text-anchor:start;white-space:normal;shape-padding:0;shape-margin:0;inline-size:0;clip-rule:nonzero;display:inline;overflow:visible;visibility:visible;isolation:auto;mix-blend-mode:normal;color-interpolation:sRGB;color-interpolation-filters:linearRGB;solid-color:#000000;solid-opacity:1;vector-effect:none;fill:#aabfd0;fill-opacity:1;fill-rule:nonzero;stroke:none;stroke-width:0.529167;stroke-linecap:round;stroke-linejoin:round;stroke-miterlimit:4;stroke-dasharray:none;stroke-dashoffset:0;stroke-opacity:1;color-rendering:auto;image-rendering:auto;shape-rendering:auto;text-rendering:auto;enable-background:accumulate;stop-color:#000000" />
      <path
         id="path1481"
         style="color:#000000;font-style:normal;font-variant:normal;font-weight:normal;font-stretch:normal;font-size:medium;line-height:normal;font-family:sans-serif;font-variant-ligatures:normal;font-variant-position:normal;font-variant-caps:normal;font-variant-numeric:normal;font-variant-alternates:normal;font-variant-east-asian:normal;font-feature-settings:normal;font-variation-settings:normal;text-indent:0;text-align:start;text-decoration:none;text-decoration-line:none;text-decoration-style:solid;text-decoration-color:#000000;letter-spacing:normal;word-spacing:normal;text-transform:none;writing-mode:lr-tb;direction:ltr;text-orientation:mixed;dominant-baseline:auto;baseline-shift:baseline;text-anchor:start;white-space:normal;shape-padding:0;shape-margin:0;inline-size:0;clip-rule:nonzero;display:inline;overflow:visible;visibility:visible;isolation:auto;mix-blend-mode:normal;color-interpolation:sRGB;color-interpolation-filters:linearRGB;solid-color:#000000;solid-opacity:1;vector-effect:none;fill:#aabfd0;fill-opacity:1;fill-rule:nonzero;stroke:none;stroke-width:0.529167;stroke-linecap:round;stroke-linejoin:round;stroke-miterlimit:4;stroke-dasharray:none;stroke-dashoffset:0;stroke-opacity:1;color-rendering:auto;image-rendering:auto;shape-rendering:auto;text-rendering:auto;enable-background:accumulate;stop-color:#000000"
         d="m -39.263797,306.97422 c -0.0052,2e-5 -0.01034,2e-4 -0.0155,5.2e-4 -0.09775,0.006 -0.184226,0.0654 -0.224793,0.15451 l -0.182933,0.39636 c 0.572955,0.61522 1.072961,1.37433 1.5875,2.06032 l 0.888833,-0.22272 c 0.08993,-0.0219 0.184777,0.005 0.250114,0.0703 l 1.399915,1.40043 0.529167,-0.52917 -1.399915,-1.40043 c -0.06534,-0.0656 -0.160185,-0.0922 -0.250113,-0.0703 l -0.888833,0.22273 -1.482598,-1.97663 c -0.04977,-0.0664 -0.127833,-0.10565 -0.210839,-0.10594 z m 5.632731,1.93009 -0.526066,0.52658 c 0.153439,-0.15033 0.412607,-0.0648 0.446484,0.14728 l 0.469223,2.81637 h 0.303855 c 0.164105,6.6e-4 0.289228,-0.14668 0.262001,-0.30851 l -0.505912,-3.03703 c -0.02085,-0.13017 -0.134329,-0.22514 -0.234722,-0.22342 -0.100392,0.002 -0.166219,0.0298 -0.214863,0.0787 z m -8.267198,0.64082 -0.117821,0.39274 c 0.267231,0.30747 0.509099,0.66168 0.756883,0.99296 l 0.352952,-0.76481 -0.527438,-0.70512 c -0.0501,-0.0662 -0.12835,-0.10502 -0.228316,-0.10488 -0.09997,1.5e-4 -0.202912,0.0771 -0.23626,0.18911 z"
         sodipodi:nodetypes="ccccccccccccccccccccccccccccccc" />
      <path
         sodipodi:nodetypes="ccccc"
         id="path1486"
         style="color:#000000;font-style:normal;font-variant:normal;font-weight:normal;font-stretch:normal;font-size:medium;line-height:normal;font-family:sans-serif;font-variant-ligatures:normal;font-variant-position:normal;font-variant-caps:normal;font-variant-numeric:normal;font-variant-alternates:normal;font-variant-east-asian:normal;font-feature-settings:normal;font-variation-settings:normal;text-indent:0;text-align:start;text-decoration:none;text-decoration-line:none;text-decoration-style:solid;text-decoration-color:#000000;letter-spacing:normal;word-spacing:normal;text-transform:none;writing-mode:lr-tb;direction:ltr;text-orientation:mixed;dominant-baseline:auto;baseline-shift:baseline;text-anchor:start;white-space:normal;shape-padding:0;shape-margin:0;inline-size:0;clip-rule:nonzero;display:inline;overflow:visible;visibility:visible;isolation:auto;mix-blend-mode:normal;color-interpolation:sRGB;color-interpolation-filters:linearRGB;solid-color:#000000;solid-opacity:1;vector-effect:none;fill:#176b73;fill-opacity:1;fill-rule:nonzero;stroke:none;stroke-width:0.529167;stroke-linecap:round;stroke-linejoin:round;stroke-miterlimit:4;stroke-dasharray:none;stroke-dashoffset:0;stroke-opacity:1;color-rendering:auto;image-rendering:auto;shape-rendering:auto;text-rendering:auto;enable-background:accumulate;stop-color:#000000"
         d="m -43.191538,312.40827 0.502293,0.78961 10.244855,0.004 0.542083,-0.78341 z" />
      <path
         id="path1491"
         style="color:#000000;font-style:normal;font-variant:normal;font-weight:normal;font-stretch:normal;font-size:medium;line-height:normal;font-family:sans-serif;font-variant-ligatures:normal;font-variant-position:normal;font-variant-caps:normal;font-variant-numeric:normal;font-variant-alternates:normal;font-variant-east-asian:normal;font-feature-settings:normal;font-variation-settings:normal;text-indent:0;text-align:start;text-decoration:none;text-decoration-line:none;text-decoration-style:solid;text-decoration-color:#000000;letter-spacing:normal;word-spacing:normal;text-transform:none;writing-mode:lr-tb;direction:ltr;text-orientation:mixed;dominant-baseline:auto;baseline-shift:baseline;text-anchor:start;white-space:normal;shape-padding:0;shape-margin:0;inline-size:0;clip-rule:nonzero;display:inline;overflow:visible;visibility:visible;isolation:auto;mix-blend-mode:normal;color-interpolation:sRGB;color-interpolation-filters:linearRGB;solid-color:#000000;solid-opacity:1;vector-effect:none;fill:#176b73;fill-opacity:1;fill-rule:nonzero;stroke:none;stroke-width:0.529167;stroke-linecap:round;stroke-linejoin:round;stroke-miterlimit:4;stroke-dasharray:none;stroke-dashoffset:0;stroke-opacity:1;color-rendering:auto;image-rendering:auto;shape-rendering:auto;text-rendering:auto;enable-background:accumulate;stop-color:#000000"
         d="m -32.413958,312.14296 c 0.04321,0.0822 0.04385,0.18692 -0.01757,0.27492 l -2.329574,3.36517 c 0.103759,0.24818 0.378764,0.22542 0.47801,0.0739 l 2.380734,-3.43907 c 0.06142,-0.088 0.06078,-0.19274 0.01757,-0.27492 z m -3.413154,1.77517 -2.111058,4.22602 c 0.114498,0.33567 0.457956,0.20491 0.498682,0.0609 l 1.894531,-3.79297 z"
         sodipodi:nodetypes="cccccccccccc" />
      <path
         style="color:#000000;font-style:normal;font-variant:normal;font-weight:normal;font-stretch:normal;font-size:medium;line-height:normal;font-family:sans-serif;font-variant-ligatures:normal;font-variant-position:normal;font-variant-caps:normal;font-variant-numeric:normal;font-variant-alternates:normal;font-variant-east-asian:normal;font-feature-settings:normal;font-variation-settings:normal;text-indent:0;text-align:start;text-decoration:none;text-decoration-line:none;text-decoration-style:solid;text-decoration-color:#000000;letter-spacing:normal;word-spacing:normal;text-transform:none;writing-mode:lr-tb;direction:ltr;text-orientation:mixed;dominant-baseline:auto;baseline-shift:baseline;text-anchor:start;white-space:normal;shape-padding:0;shape-margin:0;inline-size:0;clip-rule:nonzero;display:inline;overflow:visible;visibility:visible;isolation:auto;mix-blend-mode:normal;color-interpolation:sRGB;color-interpolation-filters:linearRGB;solid-color:#000000;solid-opacity:1;vector-effect:none;fill:#32b0ad;fill-opacity:1;fill-rule:nonzero;stroke:none;stroke-width:0.529167;stroke-linecap:round;stroke-linejoin:round;stroke-miterlimit:4;stroke-dasharray:none;stroke-dashoffset:0;stroke-opacity:1;color-rendering:auto;image-rendering:auto;shape-rendering:auto;text-rendering:auto;enable-background:accumulate;stop-color:#000000"
         d="m -42.40625,311.85547 a 0.26460996,0.26460996 0 0 0 -0.03906,0.008 l -1.175782,0.29297 a 0.2645835,0.2645835 0 0 0 -0.191406,0.32227 0.2645835,0.2645835 0 0 0 0.320312,0.1914 l 1.113282,-0.27734 1.1875,0.2793 a 0.26460996,0.26460996 0 0 0 0.128906,-0.002 l 1.037109,-0.27734 1.148438,0.27734 a 0.26460996,0.26460996 0 0 0 0.126953,0 l 1.074219,-0.27734 1.072265,0.27734 a 0.26460996,0.26460996 0 0 0 0.126954,0 l 1.148437,-0.27734 1.037109,0.27734 a 0.26460996,0.26460996 0 0 0 0.128907,0.002 l 1.1875,-0.2793 1.113281,0.27734 a 0.2645835,0.2645835 0 0 0 0.320312,-0.1914 0.2645835,0.2645835 0 0 0 -0.191406,-0.32227 l -1.175781,-0.29297 a 0.26460996,0.26460996 0 0 0 -0.125,-0.002 l -1.185547,0.27929 -1.037109,-0.27734 a 0.26460996,0.26460996 0 0 0 -0.13086,0 l -1.148437,0.27734 -1.076172,-0.27734 a 0.26460996,0.26460996 0 0 0 -0.13086,0 l -1.074218,0.27734 -1.150391,-0.27734 a 0.26460996,0.26460996 0 0 0 -0.130859,0 l -1.03711,0.27734 -1.185546,-0.27929 a 0.26460996,0.26460996 0 0 0 -0.08594,-0.006 z"
         id="path1463" />
    </g>
  </g>
</svg>
