<?xml version="1.0" encoding="UTF-8"?>
<svg version="1.1" xmlns="http://www.w3.org/2000/svg" width="512" height="512">
<path d="M0 0 C3.38452002 3.09998073 6.38484261 6.66950556 8 11 C7.91443517 13.08667769 7.76201331 15.1711206 7.5625 17.25 C7.41219473 22.20971066 7.41219473 22.20971066 9.890625 26.3125 C11.50586033 27.60468827 13.14034906 28.87316827 14.79296875 30.1171875 C18.35739513 33.15799018 19.41894529 36.43457015 20 41 C20.2031325 47.39383717 19.26916942 52.03853284 15 57 C11.70415357 60.25057381 8.44256793 62.59570231 4 64 C1.3515625 63.9140625 1.3515625 63.9140625 -1.375 63.625 C-5.58217706 63.51568642 -5.58217706 63.51568642 -9.05859375 65.66796875 C-10.22339312 67.09218892 -11.35450854 68.54466429 -12.44921875 70.0234375 C-15.63188968 74.07993999 -20.07332814 75.27548943 -25 76 C-23.9275 76.680625 -22.855 77.36125 -21.75 78.0625 C-17.74975402 80.94300167 -15.95618083 83.46166047 -14 88 C-13.75 91.9375 -13.75 91.9375 -14 95 C-13.030625 94.87625 -12.06125 94.7525 -11.0625 94.625 C-5.75227964 94.61418489 -1.91623337 97.67784594 2 101 C5 105 5 105 5 108 C5.66 108 6.32 108 7 108 C7.3403125 106.9171875 7.3403125 106.9171875 7.6875 105.8125 C10.01287032 100.82956359 14.01187333 97.25653349 19 95 C22.8125 94.8125 22.8125 94.8125 26 95 C25.87625 94.030625 25.7525 93.06125 25.625 92.0625 C25.63590262 86.69840857 28.6080144 82.93075737 32 79 C37.36730731 74.41542501 42.59136441 74.27369635 49.546875 74.48828125 C55.58578665 75.38318784 59.55384337 78.0806087 63.43359375 82.7109375 C66.08521099 86.76635211 66.38654767 90.264791 66 95 C67.4540625 94.814375 67.4540625 94.814375 68.9375 94.625 C74.30159143 94.63590262 78.06924263 97.6080144 82 101 C86.60350009 106.38946352 86.49578465 111.45652828 86.62890625 118.40234375 C85.81331068 123.06795567 83.72230165 126.19348092 81 130 C82.17973389 130.01401855 82.17973389 130.01401855 83.38330078 130.02832031 C86.96449238 130.08217282 90.54439883 130.16579363 94.125 130.25 C95.3625 130.26417969 96.6 130.27835938 97.875 130.29296875 C106.46038059 130.52375855 110.42564711 131.23752327 116.375 137.5 C118.77303575 142.66500009 118.75381535 147.4002288 118 153 C115.72954418 157.89021253 112.77054673 160.5193157 108 163 C106.00100951 163.06353759 103.99869 163.07237596 102 163 C101.95101563 163.969375 101.90203125 164.93875 101.8515625 165.9375 C101.77633013 167.29168272 101.70079206 168.64584849 101.625 170 C101.55539062 171.299375 101.48578125 172.59875 101.4140625 173.9375 C100.83799192 180.98077803 99.87652832 187.98777348 99 195 C118.47 195 137.94 195 158 195 C157.59974609 186.92144531 157.59974609 186.92144531 157.19140625 178.6796875 C156.91303438 171.41267673 156.7145974 164.14570324 156.5625 156.875 C156.53296738 155.47316341 156.53296738 155.47316341 156.50283813 154.0430069 C155.86713608 119.9092152 160.57155002 95.26628497 181 67 C186.61 67 192.22 67 198 67 C197.20647001 70.96764993 196.75540508 72.81529792 194.8828125 76.10668945 C178.85052116 105.11818839 172.8502385 129.40588274 173.125 162.1875 C173.13180786 163.0051395 173.13861572 163.82277901 173.14562988 164.66519547 C173.24727092 174.78922795 173.59775361 184.87868764 174 195 C184.89 195 195.78 195 207 195 C208.155 199.5375 209.31 204.075 210.5 208.75 C210.86544922 210.17538086 211.23089844 211.60076172 211.60742188 213.06933594 C211.89166016 214.19629883 212.17589844 215.32326172 212.46875 216.484375 C212.90864258 218.21252441 212.90864258 218.21252441 213.35742188 219.97558594 C214 223 214 223 214 227 C216.64 227 219.28 227 222 227 C222 237.56 222 248.12 222 259 C216.72 259 211.44 259 206 259 C206.04259949 261.01388321 206.04259949 261.01388321 206.08605957 263.06845093 C206.08089778 270.05708288 205.33627156 276.95981364 204.62304688 283.90478516 C204.47483967 285.38403129 204.32707053 286.86332137 204.17970276 288.34265137 C203.78125397 292.32999081 203.37673281 296.31669281 202.97106361 300.30330324 C202.54708569 304.48027582 202.12877133 308.65781556 201.70983887 312.83529663 C200.91695619 320.7331286 200.11903018 328.63044241 199.31926107 336.52757967 C198.23791556 347.20801391 197.16442309 357.88923727 196.09047508 368.5704174 C194.40004075 385.38092768 192.69916888 402.19036504 191 419 C158.66 419 126.32 419 93 419 C88.5625 374.375 88.5625 374.375 87.16625977 360.30224609 C86.75007352 356.12700305 86.75007352 356.12700305 86.33335876 351.95181274 C86.14850523 350.09714911 85.96443497 348.2424073 85.7809906 346.38760376 C85.50241538 343.57250451 85.22132876 340.75766601 84.93969727 337.94287109 C84.81862154 336.71052514 84.81862154 336.71052514 84.69509983 335.45328331 C84.57968043 334.30735427 84.57968043 334.30735427 84.46192932 333.13827515 C84.39648202 332.48011496 84.33103472 331.82195477 84.26360416 331.14385033 C83.92835033 328.41728477 83.45162035 325.70972211 83 323 C79.04 354.68 75.08 386.36 71 419 C-19.42 419 -109.84 419 -203 419 C-208.115 378.245 -213.23 337.49 -218.5 295.5 C-220.11841797 282.62548828 -221.73683594 269.75097656 -223.40429688 256.48632812 C-225.37207031 240.78027344 -225.37207031 240.78027344 -226.29162598 233.43054199 C-226.93505281 228.29058911 -227.58117286 223.15098063 -228.22912598 218.01159668 C-229.05546642 211.45721131 -229.87671666 204.90220151 -230.69472599 198.34677029 C-230.99583521 195.94027156 -231.29860687 193.53398012 -231.60322475 191.12792301 C-232.01441368 187.87819136 -232.41952074 184.62775685 -232.82312012 181.3770752 C-232.94370537 180.4356945 -233.06429062 179.49431381 -233.18852997 178.52440643 C-233.82935173 173.30334606 -234.11545365 168.26048782 -234 163 C-234.86625 163.0825 -235.7325 163.165 -236.625 163.25 C-241.98496612 162.85296547 -244.76130062 160.30389409 -248.375 156.5 C-250.77303575 151.33499991 -250.75381535 146.5997712 -250 141 C-247.72388578 136.09760014 -244.84126898 133.37662295 -240 131 C-236.33746167 130.39883854 -232.70705058 130.13192351 -229 130 C-229.3609375 129.58492187 -229.721875 129.16984375 -230.09375 128.7421875 C-234.26218329 123.20743441 -234.81087129 118.2598726 -234.546875 111.41796875 C-233.58574904 105.41093151 -230.90785766 101.43649261 -226.2890625 97.56640625 C-222.23364789 94.91478901 -218.735209 94.61345233 -214 95 C-214.12375 94.030625 -214.2475 93.06125 -214.375 92.0625 C-214.36409738 86.69840857 -211.3919856 82.93075737 -208 79 C-202.63269269 74.41542501 -197.40863559 74.27369635 -190.453125 74.48828125 C-184.41421335 75.38318784 -180.44615663 78.0806087 -176.56640625 82.7109375 C-173.91478901 86.76635211 -173.61345233 90.264791 -174 95 C-173.030625 94.87625 -172.06125 94.7525 -171.0625 94.625 C-165.75227964 94.61418489 -161.91623337 97.67784594 -158 101 C-155 105 -155 105 -155 108 C-154.34 108 -153.68 108 -153 108 C-152.773125 107.278125 -152.54625 106.55625 -152.3125 105.8125 C-149.98712968 100.82956359 -145.98812667 97.25653349 -141 95 C-137.1875 94.8125 -137.1875 94.8125 -134 95 C-134.103125 94.030625 -134.20625 93.06125 -134.3125 92.0625 C-134.36457742 86.97974348 -131.64703921 83.16908676 -129 79 C-130.2375 77.576875 -130.2375 77.576875 -131.5 76.125 C-134 73.25 -134 73.25 -134 71 C-134.99 71.495 -134.99 71.495 -136 72 C-143.30834901 72.68586045 -150.05891493 72.73086404 -156 68 C-161.53322454 61.913453 -162.41605518 56.42094355 -162.34375 48.3046875 C-161.85268079 43.58372665 -160.31649748 40.38505557 -157 37 C-155.906875 36.4225 -154.81375 35.845 -153.6875 35.25 C-150.71597448 33.29977583 -150.71597448 33.29977583 -150.76171875 30.375 C-150.83829495 28.26255315 -150.92716503 26.15052168 -151.02734375 24.0390625 C-150.97887281 18.65186405 -148.96524679 15.04117678 -145.28125 11.21484375 C-139.56449369 6.09156426 -134.91094238 5.59305223 -127.3046875 5.65234375 C-121.11941608 6.30304015 -117.62169047 9.25668275 -113.5 13.6875 C-112 16 -112 16 -112 18 C-111.01 17.505 -111.01 17.505 -110 17 C-103.88445313 16.37197246 -98.21156968 16.41442296 -92.7890625 19.52734375 C-88.36271662 23.17086426 -85.04587367 28.34538631 -84 34 C-83.57676455 39.50206085 -84.09261909 44.26485194 -87 49 C-88.36066981 50.12718209 -89.75985057 51.20895298 -91.1875 52.25 C-93.9427341 54.43518566 -94.90449664 55.28815537 -95.37890625 58.82421875 C-95.29290251 60.90133932 -95.17432608 62.97736399 -95.0234375 65.05078125 C-94.98712107 69.62059819 -96.59174084 72.1751178 -99 76 C-99.66 76.66 -100.32 77.32 -101 78 C-100.57847656 78.55429688 -100.15695313 79.10859375 -99.72265625 79.6796875 C-99.17480469 80.40414062 -98.62695312 81.12859375 -98.0625 81.875 C-97.51722656 82.59429687 -96.97195312 83.31359375 -96.41015625 84.0546875 C-93.71126616 87.77781012 -93.9155396 90.43913862 -94 95 C-93.030625 94.87625 -92.06125 94.7525 -91.0625 94.625 C-85.75227964 94.61418489 -81.91623337 97.67784594 -78 101 C-75 105 -75 105 -75 108 C-74.34 108 -73.68 108 -73 108 C-72.6596875 106.9171875 -72.6596875 106.9171875 -72.3125 105.8125 C-69.98712968 100.82956359 -65.98812667 97.25653349 -61 95 C-57.1875 94.8125 -57.1875 94.8125 -54 95 C-54.12375 94.030625 -54.2475 93.06125 -54.375 92.0625 C-54.36415285 86.72570039 -51.41909638 82.88499522 -48 79 C-44.1050275 75.81954147 -39.99000175 74.48682944 -35 74 C-35.9075 73.443125 -36.815 72.88625 -37.75 72.3125 C-43.31109378 68.35556789 -45.67996031 64.71020177 -47 58 C-46.86278548 56.35342571 -46.71641249 54.70759746 -46.5625 53.0625 C-46.45208231 49.60274584 -46.63680416 48.42286899 -48.92578125 45.7578125 C-50.51750468 44.41233655 -52.15395605 43.117502 -53.8359375 41.88671875 C-57.18168163 38.96976132 -57.84438446 36.27932357 -58.37109375 31.94921875 C-58.52121438 24.5756468 -58.0136322 19.59372188 -53 14 C-49.34211454 10.34211454 -46.08879631 8.90285096 -41 8 C-37.30309192 8.13470515 -33.6654955 8.5094997 -30 9 C-29.72671875 8.23042969 -29.4534375 7.46085937 -29.171875 6.66796875 C-27.16141409 2.09081941 -23.58666877 -0.27565122 -19.125 -2.3125 C-12.33215372 -3.80692618 -6.06631303 -3.58463952 0 0 Z M-155 122 C-157.475 126.455 -157.475 126.455 -160 131 C-156.04 131 -152.08 131 -148 131 C-149.65 128.03 -151.3 125.06 -153 122 C-153.66 122 -154.32 122 -155 122 Z M-75 122 C-77.475 126.455 -77.475 126.455 -80 131 C-76.04 131 -72.08 131 -68 131 C-69.65 128.03 -71.3 125.06 -73 122 C-73.66 122 -74.32 122 -75 122 Z M5 122 C2.525 126.455 2.525 126.455 0 131 C3.96 131 7.92 131 12 131 C10.35 128.03 8.7 125.06 7 122 C6.34 122 5.68 122 5 122 Z " fill="#E9E9E7" transform="translate(274,69)"/>
<path d="M0 0 C5.61 0 11.22 0 17 0 C16.20647001 3.96764993 15.75540508 5.81529792 13.8828125 9.10668945 C-2.14947884 38.11818839 -8.1497615 62.40588274 -7.875 95.1875 C-7.86819214 96.0051395 -7.86138428 96.82277901 -7.85437012 97.66519547 C-7.75272908 107.78922795 -7.40224639 117.87868764 -7 128 C3.89 128 14.78 128 26 128 C27.155 132.5375 28.31 137.075 29.5 141.75 C29.86544922 143.17538086 30.23089844 144.60076172 30.60742188 146.06933594 C30.89166016 147.19629883 31.17589844 148.32326172 31.46875 149.484375 C31.76201172 150.63647461 32.05527344 151.78857422 32.35742188 152.97558594 C33 156 33 156 33 160 C35.64 160 38.28 160 41 160 C41 170.56 41 181.12 41 192 C35.72 192 30.44 192 25 192 C25.02839966 193.34258881 25.05679932 194.68517761 25.08605957 196.06845093 C25.08089778 203.05708288 24.33627156 209.95981364 23.62304688 216.90478516 C23.47483967 218.38403129 23.32707053 219.86332137 23.17970276 221.34265137 C22.78125397 225.32999081 22.37673281 229.31669281 21.97106361 233.30330324 C21.54708569 237.48027582 21.12877133 241.65781556 20.70983887 245.83529663 C19.91695619 253.7331286 19.11903018 261.63044241 18.31926107 269.52757967 C17.23791556 280.20801391 16.16442309 290.88923727 15.09047508 301.5704174 C13.40004075 318.38092768 11.69916888 335.19036504 10 352 C-22.34 352 -54.68 352 -88 352 C-92.4375 307.375 -92.4375 307.375 -93.83374023 293.30224609 C-94.24992648 289.12700305 -94.24992648 289.12700305 -94.66664124 284.95181274 C-94.85149477 283.09714911 -95.03556503 281.2424073 -95.2190094 279.38760376 C-95.49758462 276.57250451 -95.77867124 273.75766601 -96.06030273 270.94287109 C-96.14101989 270.12130713 -96.22173704 269.29974316 -96.30490017 268.45328331 C-96.38184644 267.68933062 -96.45879271 266.92537792 -96.53807068 266.13827515 C-96.60351798 265.48011496 -96.66896528 264.82195477 -96.73639584 264.14385033 C-97.07164967 261.41728477 -97.54837965 258.70972211 -98 256 C-101.96 287.68 -105.92 319.36 -110 352 C-147.29 352 -184.58 352 -223 352 C-223 329.56 -223 307.12 -223 284 C-217.39 281.03 -211.78 278.06 -206 275 C-190.4327075 262.07621 -178.31683527 245.67329931 -176 225 C-175.00680885 204.05059606 -179.33680276 184.75743254 -193.4375 168.6875 C-194.94244671 167.10969276 -196.46225172 165.54585591 -198 164 C-198.86818359 163.07960938 -198.86818359 163.07960938 -199.75390625 162.140625 C-206.60128615 155.46174885 -214.09924963 152.71216196 -223 148 C-223 130.84 -223 113.68 -223 96 C-175.48 96 -127.96 96 -79 96 C-79.66828597 106.69257554 -80.67116142 117.36929138 -82 128 C-62.53 128 -43.06 128 -23 128 C-23.26683594 122.61429687 -23.53367187 117.22859375 -23.80859375 111.6796875 C-24.08696562 104.41267673 -24.2854026 97.14570324 -24.4375 89.875 C-24.45718842 88.94044228 -24.47687683 88.00588455 -24.49716187 87.0430069 C-25.13286392 52.9092152 -20.42844998 28.26628497 0 0 Z " fill="#CBC9CA" transform="translate(455,136)"/>
<path d="M0 0 C47.52 0 95.04 0 144 0 C144 17.16 144 34.32 144 52 C138.39 54.97 132.78 57.94 127 61 C110.01806679 75.07074466 99.67840354 90.84443385 97 113 C96.3260767 124.05897093 97.16876515 133.47352523 101 144 C101.36222656 145.03898438 101.72445312 146.07796875 102.09765625 147.1484375 C109.78995407 167.43524328 125.22586214 178.61293107 144 188 C144 210.44 144 232.88 144 256 C106.71 256 69.42 256 31 256 C23.22053089 194.08689792 23.22053089 194.08689792 19.98046875 168.234375 C19.23884502 162.31704783 18.49715962 156.39972839 17.75537109 150.48242188 C17.66240411 149.74079599 17.56943712 148.9991701 17.47365296 148.23507071 C15.97319559 136.26619466 14.46925802 124.29775838 12.96403235 112.32948118 C11.41904226 100.04440468 9.87779816 87.7588624 8.34002161 75.47288084 C7.3912157 67.89340375 6.43949899 60.3143039 5.48404133 52.7356624 C4.75138696 46.92176208 4.02394795 41.1072167 3.29844475 35.29241943 C3.00023942 32.90897782 2.70034615 30.52574669 2.39863777 28.14274597 C1.9868251 24.88807378 1.58110431 21.63269725 1.17687988 18.3770752 C0.99595079 16.96459653 0.99595079 16.96459653 0.81136656 15.52358294 C0.7033813 14.64377244 0.59539603 13.76396195 0.48413849 12.85749054 C0.38996785 12.10716317 0.2957972 11.35683579 0.19877291 10.58377123 C-0.07188301 7.06562095 0 3.52854588 0 0 Z " fill="#CBC9CA" transform="translate(40,232)"/>
<path d="M0 0 C3.38452002 3.09998073 6.38484261 6.66950556 8 11 C7.91443517 13.08667769 7.76201331 15.1711206 7.5625 17.25 C7.41219473 22.20971066 7.41219473 22.20971066 9.890625 26.3125 C11.50586033 27.60468827 13.14034906 28.87316827 14.79296875 30.1171875 C18.35739513 33.15799018 19.41894529 36.43457015 20 41 C20.2031325 47.39383717 19.26916942 52.03853284 15 57 C11.70415357 60.25057381 8.44256793 62.59570231 4 64 C1.3515625 63.9140625 1.3515625 63.9140625 -1.375 63.625 C-5.58217706 63.51568642 -5.58217706 63.51568642 -9.05859375 65.66796875 C-10.22339312 67.09218892 -11.35450854 68.54466429 -12.44921875 70.0234375 C-15.63188968 74.07993999 -20.07332814 75.27548943 -25 76 C-23.9275 76.680625 -22.855 77.36125 -21.75 78.0625 C-17.74975402 80.94300167 -15.95618083 83.46166047 -14 88 C-13.75 91.9375 -13.75 91.9375 -14 95 C-13.030625 94.87625 -12.06125 94.7525 -11.0625 94.625 C-5.75227964 94.61418489 -1.91623337 97.67784594 2 101 C5 105 5 105 5 108 C5.66 108 6.32 108 7 108 C7.3403125 106.9171875 7.3403125 106.9171875 7.6875 105.8125 C10.01287032 100.82956359 14.01187333 97.25653349 19 95 C22.8125 94.8125 22.8125 94.8125 26 95 C25.87625 94.030625 25.7525 93.06125 25.625 92.0625 C25.63590262 86.69840857 28.6080144 82.93075737 32 79 C37.36730731 74.41542501 42.59136441 74.27369635 49.546875 74.48828125 C55.58578665 75.38318784 59.55384337 78.0806087 63.43359375 82.7109375 C66.08521099 86.76635211 66.38654767 90.264791 66 95 C67.4540625 94.814375 67.4540625 94.814375 68.9375 94.625 C74.30159143 94.63590262 78.06924263 97.6080144 82 101 C86.56865899 106.34867394 86.52241313 111.41072024 86.7265625 118.3046875 C85.69090785 123.57204932 84.12620608 127.42873722 80 131 C74.92683805 132.35460902 69.91995588 132.22044013 64.71484375 132.125 C63.21081577 132.12598453 61.70678707 132.1299377 60.20277405 132.13671875 C57.05736947 132.14095278 53.91427993 132.11381231 50.76928711 132.06347656 C46.74429886 132.000941 42.72330721 132.00978108 38.69808102 132.04122925 C35.594757 132.05877975 32.49235572 132.04200994 29.38913155 132.0145874 C27.90564639 132.00491273 26.42206322 132.00501347 24.93858147 132.01519775 C13.39751693 132.06186858 13.39751693 132.06186858 9.95388794 129.4453125 C8.19855096 127.08615184 7 124.99659287 7 122 C6.34 122 5.68 122 5 122 C4.731875 122.7425 4.46375 123.485 4.1875 124.25 C2.98854615 127.02652471 2.11842855 128.84549335 0 131 C-2.90866089 131.52812195 -2.90866089 131.52812195 -6.50341797 131.56518555 C-7.15906738 131.5770137 -7.8147168 131.58884186 -8.49023438 131.60102844 C-10.65789237 131.63392884 -12.82429621 131.63687234 -14.9921875 131.63671875 C-16.50050368 131.64703319 -18.00881491 131.65809623 -19.51712036 131.6698761 C-22.67967638 131.68931732 -25.84179013 131.69272731 -29.00439453 131.6862793 C-33.05267965 131.6802859 -37.09866942 131.72448692 -41.14648247 131.78216839 C-44.26245917 131.81918755 -47.37788382 131.82406882 -50.49405289 131.81989479 C-51.98600727 131.82276435 -53.4779844 131.8368213 -54.96972275 131.86237144 C-66.61574385 132.04085707 -66.61574385 132.04085707 -70.05279541 129.45645142 C-71.80944948 127.09517493 -73 124.99832254 -73 122 C-73.66 122 -74.32 122 -75 122 C-75.268125 122.7425 -75.53625 123.485 -75.8125 124.25 C-77.01145385 127.02652471 -77.88157145 128.84549335 -80 131 C-82.90866089 131.52812195 -82.90866089 131.52812195 -86.50341797 131.56518555 C-87.15906738 131.5770137 -87.8147168 131.58884186 -88.49023438 131.60102844 C-90.65789237 131.63392884 -92.82429621 131.63687234 -94.9921875 131.63671875 C-96.50050368 131.64703319 -98.00881491 131.65809623 -99.51712036 131.6698761 C-102.67967638 131.68931732 -105.84179013 131.69272731 -109.00439453 131.6862793 C-113.05267965 131.6802859 -117.09866942 131.72448692 -121.14648247 131.78216839 C-124.26245917 131.81918755 -127.37788382 131.82406882 -130.49405289 131.81989479 C-131.98600727 131.82276435 -133.4779844 131.8368213 -134.96972275 131.86237144 C-146.61574385 132.04085707 -146.61574385 132.04085707 -150.05279541 129.45645142 C-151.80944948 127.09517493 -153 124.99832254 -153 122 C-153.66 122 -154.32 122 -155 122 C-155.268125 122.7425 -155.53625 123.485 -155.8125 124.25 C-157.01112729 127.02576846 -157.88395487 128.84445964 -160 131 C-162.90193176 131.5415802 -162.90193176 131.5415802 -166.48754883 131.59692383 C-167.14159195 131.61196457 -167.79563507 131.62700531 -168.46949768 131.64250183 C-170.63228487 131.68560303 -172.79384888 131.69827761 -174.95703125 131.70703125 C-176.46295122 131.72242689 -177.96886661 131.73827711 -179.47477722 131.75456238 C-182.63310901 131.78303431 -185.79100947 131.79443304 -188.94946289 131.79614258 C-192.98918424 131.8013195 -197.02551699 131.86624063 -201.06435108 131.94643116 C-204.17609792 131.99853091 -207.28703276 132.00970392 -210.39917564 132.00964928 C-211.88758734 132.01619988 -213.37601184 132.03742731 -214.86399269 132.07383156 C-226.45505777 132.33309599 -226.45505777 132.33309599 -230.25405884 129.05502319 C-234.88753195 122.36112805 -235.36554298 115.93664575 -234 108 C-231.99676845 103.03760887 -229.04536835 99.36860623 -224.5625 96.4375 C-220.74933759 94.89885552 -218.07165071 94.66762035 -214 95 C-214.12375 94.030625 -214.2475 93.06125 -214.375 92.0625 C-214.36409738 86.69840857 -211.3919856 82.93075737 -208 79 C-202.63269269 74.41542501 -197.40863559 74.27369635 -190.453125 74.48828125 C-184.41421335 75.38318784 -180.44615663 78.0806087 -176.56640625 82.7109375 C-173.91478901 86.76635211 -173.61345233 90.264791 -174 95 C-173.030625 94.87625 -172.06125 94.7525 -171.0625 94.625 C-165.75227964 94.61418489 -161.91623337 97.67784594 -158 101 C-155 105 -155 105 -155 108 C-154.34 108 -153.68 108 -153 108 C-152.773125 107.278125 -152.54625 106.55625 -152.3125 105.8125 C-149.98712968 100.82956359 -145.98812667 97.25653349 -141 95 C-137.1875 94.8125 -137.1875 94.8125 -134 95 C-134.103125 94.030625 -134.20625 93.06125 -134.3125 92.0625 C-134.36457742 86.97974348 -131.64703921 83.16908676 -129 79 C-130.2375 77.576875 -130.2375 77.576875 -131.5 76.125 C-134 73.25 -134 73.25 -134 71 C-134.99 71.495 -134.99 71.495 -136 72 C-143.30834901 72.68586045 -150.05891493 72.73086404 -156 68 C-161.53322454 61.913453 -162.41605518 56.42094355 -162.34375 48.3046875 C-161.85268079 43.58372665 -160.31649748 40.38505557 -157 37 C-155.906875 36.4225 -154.81375 35.845 -153.6875 35.25 C-150.71597448 33.29977583 -150.71597448 33.29977583 -150.76171875 30.375 C-150.83829495 28.26255315 -150.92716503 26.15052168 -151.02734375 24.0390625 C-150.97887281 18.65186405 -148.96524679 15.04117678 -145.28125 11.21484375 C-139.56449369 6.09156426 -134.91094238 5.59305223 -127.3046875 5.65234375 C-121.11941608 6.30304015 -117.62169047 9.25668275 -113.5 13.6875 C-112 16 -112 16 -112 18 C-111.01 17.505 -111.01 17.505 -110 17 C-103.88445313 16.37197246 -98.21156968 16.41442296 -92.7890625 19.52734375 C-88.36271662 23.17086426 -85.04587367 28.34538631 -84 34 C-83.57676455 39.50206085 -84.09261909 44.26485194 -87 49 C-88.36066981 50.12718209 -89.75985057 51.20895298 -91.1875 52.25 C-93.9427341 54.43518566 -94.90449664 55.28815537 -95.37890625 58.82421875 C-95.29290251 60.90133932 -95.17432608 62.97736399 -95.0234375 65.05078125 C-94.98712107 69.62059819 -96.59174084 72.1751178 -99 76 C-99.66 76.66 -100.32 77.32 -101 78 C-100.57847656 78.55429688 -100.15695313 79.10859375 -99.72265625 79.6796875 C-99.17480469 80.40414062 -98.62695312 81.12859375 -98.0625 81.875 C-97.51722656 82.59429687 -96.97195312 83.31359375 -96.41015625 84.0546875 C-93.71126616 87.77781012 -93.9155396 90.43913862 -94 95 C-93.030625 94.87625 -92.06125 94.7525 -91.0625 94.625 C-85.75227964 94.61418489 -81.91623337 97.67784594 -78 101 C-75 105 -75 105 -75 108 C-74.34 108 -73.68 108 -73 108 C-72.6596875 106.9171875 -72.6596875 106.9171875 -72.3125 105.8125 C-69.98712968 100.82956359 -65.98812667 97.25653349 -61 95 C-57.1875 94.8125 -57.1875 94.8125 -54 95 C-54.12375 94.030625 -54.2475 93.06125 -54.375 92.0625 C-54.36415285 86.72570039 -51.41909638 82.88499522 -48 79 C-44.1050275 75.81954147 -39.99000175 74.48682944 -35 74 C-35.9075 73.443125 -36.815 72.88625 -37.75 72.3125 C-43.31109378 68.35556789 -45.67996031 64.71020177 -47 58 C-46.86278548 56.35342571 -46.71641249 54.70759746 -46.5625 53.0625 C-46.45208231 49.60274584 -46.63680416 48.42286899 -48.92578125 45.7578125 C-50.51750468 44.41233655 -52.15395605 43.117502 -53.8359375 41.88671875 C-57.18168163 38.96976132 -57.84438446 36.27932357 -58.37109375 31.94921875 C-58.52121438 24.5756468 -58.0136322 19.59372188 -53 14 C-49.34211454 10.34211454 -46.08879631 8.90285096 -41 8 C-37.30309192 8.13470515 -33.6654955 8.5094997 -30 9 C-29.72671875 8.23042969 -29.4534375 7.46085937 -29.171875 6.66796875 C-27.16141409 2.09081941 -23.58666877 -0.27565122 -19.125 -2.3125 C-12.33215372 -3.80692618 -6.06631303 -3.58463952 0 0 Z " fill="#FBB53F" transform="translate(274,69)"/>
<path d="M0 0 C42.24 0 84.48 0 128 0 C128 11.25 128 11.25 127.43054199 16.89712524 C127.24122353 18.81092987 127.24122353 18.81092987 127.04808044 20.76339722 C126.90649571 22.14386942 126.76481469 23.52433175 126.62304688 24.90478516 C126.47483967 26.38403129 126.32707053 27.86332137 126.17970276 29.34265137 C125.78125397 33.32999081 125.37673281 37.31669281 124.97106361 41.30330324 C124.54708569 45.48027582 124.12877133 49.65781556 123.70983887 53.83529663 C122.91695619 61.7331286 122.11903018 69.63044241 121.31926107 77.52757967 C120.23791556 88.20801391 119.16442309 98.88923727 118.09047508 109.5704174 C116.40004075 126.38092768 114.69916888 143.19036504 113 160 C80.66 160 48.32 160 15 160 C12.37510126 133.45242475 12.37510126 133.45242475 11.23632812 121.89648438 C10.4675077 114.09484358 9.69826182 106.29324686 8.92602539 98.49194336 C5.678696 65.67980214 2.52893336 32.87613366 0 0 Z " fill="#0295E4" transform="translate(352,328)"/>
<path d="M0 0 C5.61 0 11.22 0 17 0 C16.20647001 3.96764993 15.75540508 5.81529792 13.8828125 9.10668945 C-2.14947884 38.11818839 -8.1497615 62.40588274 -7.875 95.1875 C-7.86819214 96.0051395 -7.86138428 96.82277901 -7.85437012 97.66519547 C-7.75272908 107.78922795 -7.40224639 117.87868764 -7 128 C3.89 128 14.78 128 26 128 C27.155 132.5375 28.31 137.075 29.5 141.75 C29.86544922 143.17538086 30.23089844 144.60076172 30.60742188 146.06933594 C30.89166016 147.19629883 31.17589844 148.32326172 31.46875 149.484375 C31.76201172 150.63647461 32.05527344 151.78857422 32.35742188 152.97558594 C33 156 33 156 33 160 C35.64 160 38.28 160 41 160 C41 170.56 41 181.12 41 192 C-11.8 192 -64.6 192 -119 192 C-119 181.44 -119 170.88 -119 160 C-116.36 160 -113.72 160 -111 160 C-110.91363281 159.43796875 -110.82726562 158.8759375 -110.73828125 158.296875 C-109.61473744 151.57622763 -108.07924443 144.98426953 -106.4375 138.375 C-106.21553955 137.47362305 -105.9935791 136.57224609 -105.76489258 135.64355469 C-105.55243896 134.79954102 -105.33998535 133.95552734 -105.12109375 133.0859375 C-104.83383423 131.9419751 -104.83383423 131.9419751 -104.54077148 130.77490234 C-104 129 -104 129 -103 128 C-100.50507612 127.90497584 -98.03793986 127.87442434 -95.54272461 127.88647461 C-94.76229294 127.88632858 -93.98186127 127.88618256 -93.17778015 127.8860321 C-90.5859402 127.88673142 -87.99417122 127.89452464 -85.40234375 127.90234375 C-83.6101536 127.90420787 -81.81796294 127.9056318 -80.02577209 127.90663147 C-75.29929203 127.91045716 -70.57284248 127.92028788 -65.84637451 127.93133545 C-61.0271445 127.94154847 -56.20790958 127.94612885 -51.38867188 127.95117188 C-41.92576781 127.96191011 -32.46288644 127.97898714 -23 128 C-23.05107407 127.07484589 -23.10214813 126.14969177 -23.1547699 125.19650269 C-23.77426163 113.427104 -24.19100552 101.65816098 -24.4375 89.875 C-24.46703262 88.47316341 -24.46703262 88.47316341 -24.49716187 87.0430069 C-25.13286392 52.9092152 -20.42844998 28.26628497 0 0 Z " fill="#E9E9E7" transform="translate(455,136)"/>
<path d="M0 0 C1.43633913 -0.00461032 2.87267355 -0.01096412 4.30899811 -0.01890898 C8.25173461 -0.03560766 12.19408385 -0.02735365 16.13682175 -0.0149641 C20.39047622 -0.00591809 24.64406386 -0.0198811 28.89770508 -0.03088379 C37.22891271 -0.0486784 45.55997627 -0.04482484 53.89118958 -0.03323323 C60.66160261 -0.02420288 67.43197525 -0.02297317 74.20239258 -0.02732849 C75.16567301 -0.02794142 76.12895345 -0.02855436 77.1214242 -0.02918586 C79.07825662 -0.03046475 81.03508903 -0.0317616 82.99192142 -0.03307623 C101.3449111 -0.04448479 119.69782089 -0.03136399 138.05079746 -0.00987476 C153.80148311 0.00799647 169.55205085 0.00489244 185.30273438 -0.0135498 C203.58965751 -0.03495164 221.87651061 -0.04338612 240.16344452 -0.03110075 C242.11311339 -0.02982654 244.06278228 -0.02856906 246.01245117 -0.02732849 C247.45139543 -0.02640284 247.45139543 -0.02640284 248.91940928 -0.02545848 C255.68237392 -0.02200352 262.44529418 -0.02783708 269.20825195 -0.0372467 C277.44908465 -0.04846043 285.68976493 -0.04543984 293.93058014 -0.02412373 C298.13590383 -0.01360485 302.34097331 -0.00950565 306.54629517 -0.02272034 C310.39542754 -0.03463289 314.2440699 -0.02810089 318.09315777 -0.00681013 C319.48607238 -0.00233919 320.87902832 -0.00462145 322.27191639 -0.01431328 C335.16495808 -0.09714766 335.16495808 -0.09714766 340.10742188 4.50793457 C343.73575851 8.32723629 344.41742646 11.39072463 344.60742188 16.50793457 C344.36523811 23.03075058 342.58516401 26.19932762 337.82727051 30.63243866 C332.64551398 33.96082765 326.14074695 33.05710206 320.21484375 33.01586914 C318.77850462 33.02047946 317.3421702 33.02683326 315.90584564 33.03477812 C311.96310914 33.0514768 308.0207599 33.04322279 304.078022 33.03083324 C299.82436753 33.02178723 295.57077989 33.03575024 291.31713867 33.04675293 C282.98593104 33.06454755 274.65486748 33.06069398 266.32365417 33.04910237 C259.55324114 33.04007202 252.7828685 33.03884232 246.01245117 33.04319763 C245.04917074 33.04381056 244.0858903 33.0444235 243.09341955 33.045055 C241.13658713 33.04633389 239.17975472 33.04763074 237.22292233 33.04894537 C218.86993265 33.06035393 200.51702286 33.04723313 182.16404629 33.0257439 C166.41336064 33.00787267 150.6627929 33.0109767 134.91210938 33.02941895 C116.62518624 33.05082078 98.33833314 33.05925526 80.05139923 33.04696989 C78.10173036 33.04569568 76.15206147 33.0444382 74.20239258 33.04319763 C73.2430964 33.04258053 72.28380023 33.04196343 71.29543447 33.04132763 C64.53246983 33.03787267 57.76954957 33.04370622 51.0065918 33.05311584 C42.7657591 33.06432957 34.52507882 33.06130898 26.28426361 33.03999287 C22.07893992 33.02947399 17.87387044 33.02537479 13.66854858 33.03858948 C9.81941621 33.05050203 5.97077385 33.04397003 2.12168598 33.02267927 C0.72877137 33.01820833 -0.66418457 33.02049059 -2.05707264 33.03018242 C-14.95011433 33.1130168 -14.95011433 33.1130168 -19.89257812 28.50793457 C-23.52091476 24.68863285 -24.20258271 21.62514451 -24.39257812 16.50793457 C-24.15039436 9.98511856 -22.37032026 6.81654152 -17.61242676 2.38343048 C-12.43067023 -0.94495851 -5.9259032 -0.04123292 0 0 Z " fill="#E9E9E8" transform="translate(47.892578125,199.4920654296875)"/>
<path d="M0 0 C3.94784653 2.37615669 6.98052818 5.16236375 9.5078125 9.05859375 C9.5078125 9.71859375 9.5078125 10.37859375 9.5078125 11.05859375 C10.1678125 10.72859375 10.8278125 10.39859375 11.5078125 10.05859375 C17.62335937 9.43056621 23.29624282 9.47301671 28.71875 12.5859375 C33.14509588 16.22945801 36.46193883 21.40398006 37.5078125 27.05859375 C37.93104795 32.5606546 37.41519341 37.32344569 34.5078125 42.05859375 C33.14714269 43.18577584 31.74796193 44.26754673 30.3203125 45.30859375 C27.5650784 47.49377941 26.60331586 48.34674912 26.12890625 51.8828125 C26.21490999 53.95993307 26.33348642 56.03595774 26.484375 58.109375 C26.52069143 62.67919194 24.91607166 65.23371155 22.5078125 69.05859375 C21.8478125 69.71859375 21.1878125 70.37859375 20.5078125 71.05859375 C20.92933594 71.61289063 21.35085937 72.1671875 21.78515625 72.73828125 C22.33300781 73.46273437 22.88085938 74.1871875 23.4453125 74.93359375 C23.99058594 75.65289062 24.53585938 76.3721875 25.09765625 77.11328125 C27.79654634 80.83640387 27.5922729 83.49773237 27.5078125 88.05859375 C28.4771875 87.93484375 29.4465625 87.81109375 30.4453125 87.68359375 C35.75553286 87.67277864 39.59157913 90.73643969 43.5078125 94.05859375 C46.5078125 98.05859375 46.5078125 98.05859375 46.5078125 101.05859375 C47.1678125 101.38859375 47.8278125 101.71859375 48.5078125 102.05859375 C48.22812471 110.44922735 47.74769979 117.81870646 41.5078125 124.05859375 C38.71940613 124.34620667 38.71940613 124.34620667 35.11791992 124.39672852 C34.46241653 124.40826462 33.80691315 124.41980072 33.13154602 124.4316864 C30.95876712 124.46605005 28.78627251 124.48450682 26.61328125 124.5 C25.87114191 124.5069029 25.12900257 124.51380581 24.36437416 124.52091789 C20.43586633 124.55677765 16.5075026 124.5803033 12.57885742 124.59399414 C8.52284178 124.61053771 4.46857122 124.66894448 0.4131422 124.73713779 C-2.70704679 124.78194681 -5.82681871 124.7954902 -8.94730186 124.8006115 C-10.44209243 124.80850292 -11.93686958 124.82814269 -13.43134499 124.85983467 C-25.11343809 125.09119698 -25.11343809 125.09119698 -28.54721069 122.51950073 C-30.3044125 120.15735997 -31.4921875 118.05767049 -31.4921875 115.05859375 C-32.1521875 115.05859375 -32.8121875 115.05859375 -33.4921875 115.05859375 C-33.7603125 115.80109375 -34.0284375 116.54359375 -34.3046875 117.30859375 C-35.50331479 120.08436221 -36.37614237 121.90305339 -38.4921875 124.05859375 C-41.39411926 124.60017395 -41.39411926 124.60017395 -44.97973633 124.65551758 C-45.63377945 124.67055832 -46.28782257 124.68559906 -46.96168518 124.70109558 C-49.12447237 124.74419678 -51.28603638 124.75687136 -53.44921875 124.765625 C-54.95513872 124.78102064 -56.46105411 124.79687086 -57.96696472 124.81315613 C-61.12529651 124.84162806 -64.28319697 124.85302679 -67.44165039 124.85473633 C-71.48137174 124.85991325 -75.51770449 124.92483438 -79.55653858 125.00502491 C-82.66828542 125.05712466 -85.77922026 125.06829767 -88.89136314 125.06824303 C-90.37977484 125.07479363 -91.86819934 125.09602106 -93.35618019 125.13242531 C-104.94724527 125.39168974 -104.94724527 125.39168974 -108.74624634 122.11361694 C-113.37971945 115.4197218 -113.85773048 108.9952395 -112.4921875 101.05859375 C-110.48895595 96.09620262 -107.53755585 92.42719998 -103.0546875 89.49609375 C-99.24152509 87.95744927 -96.56383821 87.7262141 -92.4921875 88.05859375 C-92.6159375 87.08921875 -92.7396875 86.11984375 -92.8671875 85.12109375 C-92.85628488 79.75700232 -89.8841731 75.98935112 -86.4921875 72.05859375 C-81.12488019 67.47401876 -75.90082309 67.3322901 -68.9453125 67.546875 C-62.90640085 68.44178159 -58.93834413 71.13920245 -55.05859375 75.76953125 C-52.40697651 79.82494586 -52.10563983 83.32338475 -52.4921875 88.05859375 C-51.5228125 87.93484375 -50.5534375 87.81109375 -49.5546875 87.68359375 C-44.24446714 87.67277864 -40.40842087 90.73643969 -36.4921875 94.05859375 C-33.4921875 98.05859375 -33.4921875 98.05859375 -33.4921875 101.05859375 C-32.8321875 101.05859375 -32.1721875 101.05859375 -31.4921875 101.05859375 C-31.2653125 100.33671875 -31.0384375 99.61484375 -30.8046875 98.87109375 C-28.47931718 93.88815734 -24.48031417 90.31512724 -19.4921875 88.05859375 C-15.6796875 87.87109375 -15.6796875 87.87109375 -12.4921875 88.05859375 C-12.5953125 87.08921875 -12.6984375 86.11984375 -12.8046875 85.12109375 C-12.85676492 80.03833723 -10.13922671 76.22768051 -7.4921875 72.05859375 C-8.7296875 70.63546875 -8.7296875 70.63546875 -9.9921875 69.18359375 C-12.4921875 66.30859375 -12.4921875 66.30859375 -12.4921875 64.05859375 C-13.4821875 64.55359375 -13.4821875 64.55359375 -14.4921875 65.05859375 C-21.80053651 65.7444542 -28.55110243 65.78945779 -34.4921875 61.05859375 C-40.02541204 54.97204675 -40.90824268 49.4795373 -40.8359375 41.36328125 C-40.34486829 36.6423204 -38.80868498 33.44364932 -35.4921875 30.05859375 C-34.3990625 29.48109375 -33.3059375 28.90359375 -32.1796875 28.30859375 C-29.20816198 26.35836958 -29.20816198 26.35836958 -29.25390625 23.43359375 C-29.33048245 21.3211469 -29.41935253 19.20911543 -29.51953125 17.09765625 C-29.47106031 11.7104578 -27.45743429 8.09977053 -23.7734375 4.2734375 C-17.20924986 -1.60929846 -8.45404544 -3.19345604 0 0 Z " fill="#FBB43F" transform="translate(152.4921875,75.94140625)"/>
<path d="M0 0 C15.84 0 31.68 0 48 0 C50.01743184 29.19400151 50.01743184 29.19400151 50.71679688 39.62597656 C50.7899935 40.71779259 50.7899935 40.71779259 50.86466885 41.83166552 C53.24262203 77.37315804 55.41681929 112.92835271 57.63269186 148.48022771 C58.18788244 157.38518096 58.74542422 166.2899859 59.3034842 175.19475973 C59.84822926 183.88802843 60.39176771 192.58137196 60.93428588 201.27477992 C61.25551828 206.42225474 61.57716036 211.56970304 61.89990997 216.71708298 C62.20013002 221.50619978 62.49883636 226.29540862 62.7963562 231.08469391 C62.90547081 232.83713994 63.01511546 234.58955307 63.12532806 236.34193039 C63.27544121 238.73009438 63.42363978 241.11836972 63.5713501 243.50668335 C63.615313 244.19893615 63.6592759 244.89118895 63.70457101 245.60441911 C63.91774033 249.08579139 64 252.50654219 64 256 C53.11 256 42.22 256 31 256 C27.04527894 224.54312892 23.09519736 193.08568096 19.15234962 161.6273196 C18.68672761 157.91234899 18.22106263 154.19738377 17.75537109 150.48242188 C17.66266204 149.7428479 17.56995298 149.00327392 17.47443455 148.2412886 C15.97371612 136.27034 14.46951869 124.299831 12.96403235 112.32948118 C11.41904226 100.04440468 9.87779816 87.7588624 8.34002161 75.47288084 C7.3912157 67.89340375 6.43949899 60.3143039 5.48404133 52.7356624 C4.75138696 46.92176208 4.02394795 41.1072167 3.29844475 35.29241943 C3.00023942 32.90897782 2.70034615 30.52574669 2.39863777 28.14274597 C1.9868251 24.88807378 1.58110431 21.63269725 1.17687988 18.3770752 C0.99595079 16.96459653 0.99595079 16.96459653 0.81136656 15.52358294 C0.7033813 14.64377244 0.59539603 13.76396195 0.48413849 12.85749054 C0.38996785 12.10716317 0.2957972 11.35683579 0.19877291 10.58377123 C-0.07188301 7.06562095 0 3.52854588 0 0 Z " fill="#E72F3E" transform="translate(40,232)"/>
<path d="M0 0 C15.84 0 31.68 0 48 0 C47.31923314 10.89226971 46.43957798 21.25115106 45 32 C34.605 32.495 34.605 32.495 24 33 C21.36 43.23 18.72 53.46 16 64 C13.36 64 10.72 64 8 64 C8 74.56 8 85.12 8 96 C13.28 96 18.56 96 24 96 C25.54905361 105.34146679 26.63541326 114.62490622 27.43261719 124.05541992 C27.62394497 126.3001221 27.82722139 128.54353039 28.03125 130.78710938 C28.15958256 132.27077051 28.28720909 133.75449292 28.4140625 135.23828125 C28.5270166 136.53805908 28.6399707 137.83783691 28.75634766 139.17700195 C29.6274066 153.91889133 28.27693358 167.9572242 26.375 182.5625 C26.10508989 184.69186618 25.8360625 186.82134441 25.56787109 188.95092773 C24.86642826 194.50195832 24.15316279 200.05140479 23.43725586 205.60058594 C22.70610272 211.28488315 21.98637373 216.97062589 21.265625 222.65625 C19.85480072 233.77226841 18.43040235 244.88648391 17 256 C6.11 256 -4.78 256 -16 256 C-14.55601202 228.52560058 -12.92633467 201.06762789 -11.20506549 173.6094203 C-10.84825113 167.91330759 -10.49299201 162.21709781 -10.13746643 156.52090454 C-9.54271014 146.99579999 -8.94666689 137.47077664 -8.34985352 127.94580078 C-7.66174749 116.96350163 -6.97591825 105.98106198 -6.29122108 94.99854982 C-5.69868779 85.49530319 -5.10493791 75.99213314 -4.51017624 66.48902571 C-4.15685738 60.84367961 -3.80394776 55.19830878 -3.45214653 49.55286789 C-3.12275386 44.26809952 -2.79182827 38.98342928 -2.45973969 33.69882965 C-2.33867558 31.7683838 -2.21813397 29.83790509 -2.09816933 27.90739059 C-1.93366898 25.26160281 -1.76722779 22.61594366 -1.60032654 19.9703064 C-1.55402129 19.21826884 -1.50771604 18.46623128 -1.46000761 17.6914047 C-1.08372183 11.77739401 -0.53716367 5.90880038 0 0 Z " fill="#E72F3E" transform="translate(328,232)"/>
<path d="M0 0 C8.60442238 1.29741961 17.18770984 2.68728647 25.76171875 4.171875 C26.940224 4.37500809 28.11872925 4.57814117 29.33294678 4.78742981 C33.1180283 5.44029339 36.90278875 6.09499359 40.6875 6.75 C43.29370097 7.20044064 45.89990214 7.65088009 48.50610352 8.10131836 C56.00454708 9.39812754 63.50239646 10.69834381 71 12 C72.53515259 12.26638275 72.53515259 12.26638275 74.10131836 12.53814697 C79.16517521 13.41717838 84.2285618 14.29880065 89.29092407 15.18640137 C90.71216405 15.43541488 92.13352904 15.683716 93.55502319 15.93127441 C95.47328244 16.26568497 97.3909583 16.60343701 99.30859375 16.94140625 C100.34814209 17.12388916 101.38769043 17.30637207 102.45874023 17.49438477 C105 18 105 18 108 19 C108 35.71991494 105.66369372 52.36306282 104 69 C71.66 69 39.32 69 6 69 C5.01 59.285625 4.02 49.57125 3 39.5625 C2.68675781 36.51201416 2.37351562 33.46152832 2.05078125 30.31860352 C1.80433123 27.88040708 1.55821524 25.44217685 1.3125 23.00390625 C1.18294922 21.75444214 1.05339844 20.50497803 0.91992188 19.21765137 C0.27485865 12.77277863 -0.14657913 6.47696518 0 0 Z " fill="#0195E4" transform="translate(361,419)"/>
<path d="M0 0 C0.97743164 0.23291748 1.95486328 0.46583496 2.96191406 0.70581055 C15.88176504 3.71432018 28.90494412 5.97162843 41.98239136 8.17678833 C48.39240582 9.25835528 54.7997018 10.355781 61.20703125 11.453125 C63.10600914 11.77803673 63.10600914 11.77803673 65.04335022 12.10951233 C76.18821784 14.02141643 87.31751803 16.01114526 98.4375 18.0625 C99.23240845 18.20829498 100.02731689 18.35408997 100.84631348 18.50430298 C103.04258834 18.90769981 105.23822524 19.31435894 107.43359375 19.72265625 C108.64072021 19.94703369 109.84784668 20.17141113 111.09155273 20.40258789 C114 21 114 21 117 22 C117.62495404 37.78587603 115.73625869 53.33826938 114 69 C101.28180015 67.67984358 88.76355993 65.66732502 76.1875 63.375 C74.24168089 63.02357649 72.2957974 62.67250927 70.34985352 62.32177734 C66.30241416 61.59150636 62.2555577 60.85810028 58.20898438 60.12304688 C52.98872427 59.17641883 47.76588252 58.24499421 42.54191589 57.31906128 C38.48109341 56.59874813 34.42120643 55.87325581 30.36148071 55.14678955 C28.42040064 54.80040036 26.47897502 54.45594168 24.53720093 54.11346436 C21.83491583 53.6361696 19.13414061 53.15108206 16.43359375 52.6640625 C15.63463684 52.52478333 14.83567993 52.38550415 14.01251221 52.24200439 C6.96987935 50.95695918 6.96987935 50.95695918 4 49 C3.36712646 47.21211243 3.36712646 47.21211243 3.17871094 45.02856445 C3.09893005 44.21043777 3.01914917 43.3923111 2.93695068 42.5493927 C2.83667572 41.21976753 2.83667572 41.21976753 2.734375 39.86328125 C2.60968842 38.49407784 2.60968842 38.49407784 2.48248291 37.09721375 C2.22064856 34.17021729 1.98543356 31.24172586 1.75 28.3125 C1.57718027 26.35727449 1.40272045 24.4021932 1.2265625 22.44726562 C-0.11431263 7.19135892 -0.11431263 7.19135892 0 0 Z " fill="#0276B4" transform="translate(356,369)"/>
<path d="M0 0 C52.8 0 105.6 0 160 0 C160 10.56 160 21.12 160 32 C107.2 32 54.4 32 0 32 C0 21.44 0 10.88 0 0 Z " fill="#CBCBCB" transform="translate(336,296)"/>
<path d="M0 0 C3.38452002 3.09998073 6.38484261 6.66950556 8 11 C7.91443517 13.08667769 7.76201331 15.1711206 7.5625 17.25 C7.41219473 22.20971066 7.41219473 22.20971066 9.890625 26.3125 C11.50586033 27.60468827 13.14034906 28.87316827 14.79296875 30.1171875 C18.35739513 33.15799018 19.41894529 36.43457015 20 41 C20.2031325 47.39383717 19.26916942 52.03853284 15 57 C11.70415357 60.25057381 8.44256793 62.59570231 4 64 C1.3515625 63.9140625 1.3515625 63.9140625 -1.375 63.625 C-5.58217706 63.51568642 -5.58217706 63.51568642 -9.05859375 65.66796875 C-10.22491387 67.09404836 -11.35974742 68.54648588 -12.4609375 70.0234375 C-15.5069802 73.93536036 -19.14005597 74.8026358 -23.8125 75.875 C-29.91294797 76.43488815 -35.54708569 74.38013743 -40.375 70.6875 C-45.26853742 65.67744979 -46.33880339 61.25089169 -46.7890625 54.46484375 C-47.08616944 49.33327162 -47.08616944 49.33327162 -49.77734375 45.15625 C-50.49019531 44.6096875 -51.20304688 44.063125 -51.9375 43.5 C-55.27344899 40.93295396 -56.82147016 39.07723708 -58 35 C-58.87687648 27.79115233 -58.88918416 21.53112738 -54.41796875 15.58203125 C-50.41911628 11.12050164 -46.94088177 9.05402741 -41 8 C-37.30309192 8.13470515 -33.6654955 8.5094997 -30 9 C-29.72671875 8.23042969 -29.4534375 7.46085937 -29.171875 6.66796875 C-27.16141409 2.09081941 -23.58666877 -0.27565122 -19.125 -2.3125 C-12.33215372 -3.80692618 -6.06631303 -3.58463952 0 0 Z " fill="#D18D27" transform="translate(274,69)"/>
<path d="M0 0 C4.84974831 2.87088695 7.74237782 7.16463345 9.5 12.4375 C9.41802755 14.89667344 9.31061427 17.35504271 9.1875 19.8125 C8.94958196 24.79573296 8.94958196 24.79573296 10.7265625 29.32421875 C12.25257828 30.45557528 13.87670253 31.45078977 15.5 32.4375 C19.69871688 38.03578917 19.09831941 44.75341743 18.5 51.4375 C16.7705513 57.27438936 12.30995603 60.91731041 7.5 64.4375 C2.99207838 65.94014054 -1.44239755 65.24191149 -6.15234375 64.984375 C-9.65302313 65.10150791 -9.65302313 65.10150791 -11.74609375 67.8125 C-12.32488281 68.67875 -12.90367187 69.545 -13.5 70.4375 C-18.89803042 74.3240819 -23.82468227 75.69948264 -30.5 75.4375 C-37.27192188 74.08311562 -42.45289934 70.47285615 -46.3125 64.75 C-48.66875647 58.17728459 -49.41420991 51.95161628 -46.5 45.4375 C-47.5828125 45.1590625 -47.5828125 45.1590625 -48.6875 44.875 C-53.3618571 42.48588415 -55.86393917 38.34568248 -57.5 33.4375 C-58.45215468 20.74820785 -58.45215468 20.74820785 -54.5 15.4375 C-48 8.9375 -48 8.9375 -43.5 7.4375 C-41.04082656 7.51947245 -38.58245729 7.62688573 -36.125 7.75 C-31.14176704 7.98791804 -31.14176704 7.98791804 -26.61328125 6.2109375 C-25.48192472 4.68492172 -24.48671023 3.06079747 -23.5 1.4375 C-17.17998959 -3.30250781 -7.09632893 -3.12993976 0 0 Z " fill="#FBB53F" transform="translate(373.5,41.5625)"/>
<path d="M0 0 C3.94784653 2.37615669 6.98052818 5.16236375 9.5078125 9.05859375 C9.5078125 9.71859375 9.5078125 10.37859375 9.5078125 11.05859375 C10.1678125 10.72859375 10.8278125 10.39859375 11.5078125 10.05859375 C17.62335937 9.43056621 23.29624282 9.47301671 28.71875 12.5859375 C33.14509588 16.22945801 36.46193883 21.40398006 37.5078125 27.05859375 C37.93104795 32.5606546 37.41519341 37.32344569 34.5078125 42.05859375 C33.14714269 43.18577584 31.74796193 44.26754673 30.3203125 45.30859375 C27.5650784 47.49377941 26.60331586 48.34674912 26.12890625 51.8828125 C26.21511021 53.96476881 26.32726914 56.0458063 26.46484375 58.125 C26.54298754 63.4600894 24.42266863 67.06975454 20.7890625 70.84375 C15.02887656 76.00595054 10.39577845 76.41247341 2.7421875 76.3359375 C-3.15709752 75.83008093 -6.53966124 73.33007772 -10.4296875 68.93359375 C-12.4921875 66.05859375 -12.4921875 66.05859375 -12.4921875 64.05859375 C-13.4821875 64.55359375 -13.4821875 64.55359375 -14.4921875 65.05859375 C-21.80053651 65.7444542 -28.55110243 65.78945779 -34.4921875 61.05859375 C-39.98210718 55.01968211 -40.96024495 49.4968398 -40.90625 41.43359375 C-40.27560123 36.29321133 -38.12367369 32.69795735 -34.4921875 29.05859375 C-33.60015625 28.60097656 -32.708125 28.14335938 -31.7890625 27.671875 C-30.65210938 26.87330078 -30.65210938 26.87330078 -29.4921875 26.05859375 C-29.0365236 23.35691007 -29.0365236 23.35691007 -29.4296875 20.37109375 C-29.65416176 14.55580749 -29.06324099 10.71964903 -25.4921875 6.05859375 C-18.63397871 -1.06459129 -9.65021734 -3.64530153 0 0 Z " fill="#D18D27" transform="translate(64.4921875,24.94140625)"/>
<path d="M0 0 C3.94784653 2.37615669 6.98052818 5.16236375 9.5078125 9.05859375 C9.5078125 9.71859375 9.5078125 10.37859375 9.5078125 11.05859375 C10.1678125 10.72859375 10.8278125 10.39859375 11.5078125 10.05859375 C17.62335937 9.43056621 23.29624282 9.47301671 28.71875 12.5859375 C33.14509588 16.22945801 36.46193883 21.40398006 37.5078125 27.05859375 C37.93104795 32.5606546 37.41519341 37.32344569 34.5078125 42.05859375 C33.14714269 43.18577584 31.74796193 44.26754673 30.3203125 45.30859375 C27.5650784 47.49377941 26.60331586 48.34674912 26.12890625 51.8828125 C26.21490999 53.95993307 26.33348642 56.03595774 26.484375 58.109375 C26.52069143 62.67919194 24.91607166 65.23371155 22.5078125 69.05859375 C21.8478125 69.71859375 21.1878125 70.37859375 20.5078125 71.05859375 C17.67823421 70.6958273 15.21696959 69.96164611 12.5078125 69.05859375 C5.23213608 68.25748136 -0.09700227 69.59839691 -6.4921875 73.05859375 C-7.49811993 71.93889515 -8.4967724 70.81265255 -9.4921875 69.68359375 C-10.0490625 69.05710937 -10.6059375 68.430625 -11.1796875 67.78515625 C-12.4921875 66.05859375 -12.4921875 66.05859375 -12.4921875 64.05859375 C-13.4821875 64.55359375 -13.4821875 64.55359375 -14.4921875 65.05859375 C-21.80053651 65.7444542 -28.55110243 65.78945779 -34.4921875 61.05859375 C-40.02541204 54.97204675 -40.90824268 49.4795373 -40.8359375 41.36328125 C-40.34486829 36.6423204 -38.80868498 33.44364932 -35.4921875 30.05859375 C-33.8525 29.19234375 -33.8525 29.19234375 -32.1796875 28.30859375 C-29.20816198 26.35836958 -29.20816198 26.35836958 -29.25390625 23.43359375 C-29.33048245 21.3211469 -29.41935253 19.20911543 -29.51953125 17.09765625 C-29.47106031 11.7104578 -27.45743429 8.09977053 -23.7734375 4.2734375 C-17.20924986 -1.60929846 -8.45404544 -3.19345604 0 0 Z " fill="#FBB53F" transform="translate(152.4921875,75.94140625)"/>
<path d="M0 0 C0.33 0 0.66 0 1 0 C1.3375204 21.41437124 0.80064262 42.80112727 0.13027191 64.20346069 C0.06275039 66.36697696 -0.00349732 68.53052929 -0.06951904 70.6940918 C-0.19619677 74.82488062 -0.32983667 78.95541227 -0.46484375 83.0859375 C-0.50344009 84.32455536 -0.54203644 85.56317322 -0.58180237 86.83932495 C-0.62175827 88.01431549 -0.66171417 89.18930603 -0.70288086 90.39990234 C-0.73619003 91.41289398 -0.76949921 92.42588562 -0.80381775 93.46957397 C-1.07345931 98.32194766 -1.56000897 103.16009868 -2 108 C-15.2 108 -28.4 108 -42 108 C-42 85.56 -42 63.12 -42 40 C-36.39 37.03 -30.78 34.06 -25 31 C-13.9729719 21.8454861 -6.48240286 12.70361001 0 0 Z " fill="#E7303F" transform="translate(274,380)"/>
<path d="M0 0 C2.12597023 2.78709066 3.91910917 5.56237729 5.625 8.625 C9.07616799 14.42535412 13.28929234 19.19149218 18 24 C18.58007812 24.61617188 19.16015625 25.23234375 19.7578125 25.8671875 C26.6138364 32.53874439 34.09027274 35.28308557 43 40 C43 62.44 43 84.88 43 108 C29.8 108 16.6 108 3 108 C1.87451814 95.61969955 1.87451814 95.61969955 1.70288086 90.39990234 C1.66292496 89.2249118 1.62296906 88.04992126 1.58180237 86.83932495 C1.54320602 85.60070709 1.50460968 84.36208923 1.46484375 83.0859375 C1.42177597 81.768284 1.37870819 80.45063049 1.33433533 79.0930481 C1.22023844 75.57570826 1.11114617 72.05823189 1.00380707 68.54067993 C0.93733525 66.36961905 0.86957588 64.19860136 0.80157471 62.02758789 C0.15734475 41.35041022 -0.32607602 20.68826923 0 0 Z " fill="#E7303F" transform="translate(141,380)"/>
<path d="M0 0 C5.03029931 3.10645967 8.02726877 6.42474625 10.234375 11.89453125 C10.484375 15.83203125 10.484375 15.83203125 10.234375 18.89453125 C11.20375 18.77078125 12.173125 18.64703125 13.171875 18.51953125 C18.53596643 18.53043387 22.30361763 21.50254565 26.234375 24.89453125 C30.80303399 30.24320519 30.75678813 35.30525149 30.9609375 42.19921875 C29.92528285 47.46658057 28.36058108 51.32326847 24.234375 54.89453125 C19.16121305 56.24914027 14.15433088 56.11497138 8.94921875 56.01953125 C7.44519077 56.02051578 5.94116207 56.02446895 4.43714905 56.03125 C1.29174447 56.03548403 -1.85134507 56.00834356 -4.99633789 55.95800781 C-9.02132614 55.89547225 -13.04231779 55.90431233 -17.06754398 55.9357605 C-20.170868 55.953311 -23.27326928 55.93654119 -26.37649345 55.90911865 C-27.85997861 55.89944398 -29.34356178 55.89954472 -30.82704353 55.909729 C-42.36038376 55.95636859 -42.36038376 55.95636859 -45.77658081 53.375 C-50.5080943 46.98347785 -50.6831377 39.50812224 -49.765625 31.89453125 C-47.78206001 26.97103957 -44.78079588 23.23331906 -40.328125 20.33203125 C-36.51496259 18.79338677 -33.83727571 18.5621516 -29.765625 18.89453125 C-29.889375 17.92515625 -30.013125 16.95578125 -30.140625 15.95703125 C-30.12972238 10.59293982 -27.1576106 6.82528862 -23.765625 2.89453125 C-17.29271618 -2.6344117 -7.84970384 -3.13766411 0 0 Z " fill="#D08D27" transform="translate(329.765625,145.10546875)"/>
<path d="M0 0 C4.80600235 2.67925171 7.7762474 5.80531344 9.6875 11 C10.04154695 13.50193177 9.95198284 15.46096477 9.6875 18 C10.656875 17.87625 11.62625 17.7525 12.625 17.625 C17.93522036 17.61418489 21.77126663 20.67784594 25.6875 24 C28.6875 28 28.6875 28 28.6875 31 C29.3475 31.33 30.0075 31.66 30.6875 32 C30.40781221 40.3906336 29.92738729 47.76011271 23.6875 54 C20.89909363 54.28761292 20.89909363 54.28761292 17.29760742 54.33813477 C16.31435234 54.35543892 16.31435234 54.35543892 15.31123352 54.37309265 C13.13845462 54.4074563 10.96596001 54.42591307 8.79296875 54.44140625 C8.05082941 54.44830915 7.30869007 54.45521206 6.54406166 54.46232414 C2.61555383 54.4981839 -1.3128099 54.52170955 -5.24145508 54.53540039 C-9.29747072 54.55194396 -13.35174128 54.61035073 -17.4071703 54.67854404 C-20.52735929 54.72335306 -23.64713121 54.73689645 -26.76761436 54.74201775 C-28.26240493 54.74990917 -29.75718208 54.76954894 -31.25165749 54.80124092 C-42.92586868 55.03244713 -42.92586868 55.03244713 -46.33236694 52.49606323 C-51.05851339 46.11048858 -51.22880915 38.60360379 -50.3125 31 C-48.32893501 26.07650832 -45.32767088 22.33878781 -40.875 19.4375 C-37.06183759 17.89885552 -34.38415071 17.66762035 -30.3125 18 C-30.415625 17.01 -30.51875 16.02 -30.625 15 C-30.57493046 10.05312924 -28.64715733 6.58194652 -25.3125 3 C-17.2983577 -2.87230958 -9.08701148 -3.95789833 0 0 Z " fill="#D18D27" transform="translate(170.3125,146)"/>
<path d="M0 0 C15.84 0 31.68 0 48 0 C48 12.23835994 47.99343652 24.40879167 47.59765625 36.62890625 C47.55501738 38.00503449 47.51257776 39.38116891 47.47032166 40.75730896 C47.3824702 43.59454339 47.29234838 46.43169302 47.20043945 49.26879883 C47.08399699 52.86866645 46.97338544 56.46868636 46.86443424 60.06878757 C46.77834855 62.89244412 46.68923351 65.71599911 46.59924126 68.53953362 C46.53725383 70.50006425 46.47769838 72.46067131 46.41822815 74.42127991 C46.16931 81.97390875 45.71035128 89.47650006 45 97 C42.79093631 94.79093631 41.82032174 92.5593562 40.53930664 89.74389648 C31.83444757 70.86124918 18.34902402 61.78614615 0 52 C0 34.84 0 17.68 0 0 Z " fill="#E7303F" transform="translate(232,232)"/>
<path d="M0 0 C15.84 0 31.68 0 48 0 C48 17.16 48 34.32 48 52 C42.39 54.97 36.78 57.94 31 61 C26.63348211 64.61797196 22.83567617 67.92604697 19 72 C18.25234375 72.79019531 17.5046875 73.58039063 16.734375 74.39453125 C10.8751105 81.13715814 7.47234993 88.86167985 4 97 C3.67 97 3.34 97 3 97 C2.16836364 88.19194089 1.73303638 79.40815333 1.46484375 70.56640625 C1.4216084 69.19896395 1.37819303 67.83152733 1.33460999 66.46409607 C1.24439512 63.6109701 1.15641719 60.75778652 1.07006836 57.90454102 C0.96125507 54.31511426 0.84676368 50.72589636 0.73049068 47.13670444 C0.63970227 44.31281293 0.55214054 41.48882754 0.46542549 38.66480827 C0.40515271 36.71956267 0.34228067 34.77439811 0.27928162 32.82923889 C-0.04576494 21.87177774 0 10.97949584 0 0 Z " fill="#E7303F" transform="translate(136,232)"/>
<path d="M0 0 C8.415 1.485 8.415 1.485 17 3 C28.62819026 3.48160608 28.62819026 3.48160608 40.0078125 1.53515625 C42.62769593 0.83138364 45.3241467 0.44597555 48 0 C48 22.44 48 44.88 48 68 C32.16 68 16.32 68 0 68 C0 45.56 0 23.12 0 0 Z " fill="#CBCBCB" transform="translate(184,420)"/>
<path d="M0 0 C15.84 0 31.68 0 48 0 C48 17.16 48 34.32 48 52 C42.72 51.01 37.44 50.02 32 49 C20.41338094 48.41580072 11.82996066 49.91235988 0 52 C0 34.84 0 17.68 0 0 Z " fill="#CBCBCB" transform="translate(184,232)"/>
<path d="M0 0 C5.61 0 11.22 0 17 0 C16.20647001 3.96764993 15.75540508 5.81529792 13.8828125 9.10668945 C-2.14947884 38.11818839 -8.1497615 62.40588274 -7.875 95.1875 C-7.86819214 96.0051395 -7.86138428 96.82277901 -7.85437012 97.66519547 C-7.75276224 107.78592474 -7.44860009 117.88862208 -7 128 C-12.28 128 -17.56 128 -23 128 C-23.68220688 115.29498062 -24.17139093 102.5957964 -24.4375 89.875 C-24.45718842 88.94044228 -24.47687683 88.00588455 -24.49716187 87.0430069 C-25.13286392 52.9092152 -20.42844998 28.26628497 0 0 Z " fill="#0176B3" transform="translate(455,136)"/>
<path d="M0 0 C5.28 0 10.56 0 16 0 C16 5.28 16 10.56 16 16 C10.72 16 5.44 16 0 16 C0 10.72 0 5.44 0 0 Z " fill="#015078" transform="translate(432,248)"/>
</svg>
